<svg width="201" height="157" viewBox="0 0 201 157" fill="none" xmlns="http://www.w3.org/2000/svg">
<g id="unselected-chat.cfb49f55.svg" clip-path="url(#clip0_323_1478)">
<path id="Vector" opacity="0.1" d="M70.7671 153.449C90.0331 153.449 105.651 150.491 105.651 146.841C105.651 143.191 90.0331 140.232 70.7671 140.232C51.501 140.232 35.8828 143.191 35.8828 146.841C35.8828 150.491 51.501 153.449 70.7671 153.449Z" fill="#6C63FF"/>
<path id="Vector_2" opacity="0.1" d="M116.81 22.0679C103.989 21.6242 91.7786 17.484 80.1189 12.9556C68.4591 8.42721 56.9102 3.41148 44.3967 1.01257C36.3481 -0.530581 27.1427 -0.750465 20.6591 3.56005C14.4172 7.72001 12.4006 14.8811 11.317 21.5311C10.5009 26.5349 10.0215 31.8022 12.256 36.4872C13.809 39.7398 16.5625 42.4735 18.4682 45.5896C25.0984 56.4292 20.4115 69.7966 13.2286 80.3807C9.86104 85.3449 5.9487 90.0873 3.34773 95.3665C0.746762 100.646 -0.455665 106.715 1.82043 112.115C4.07473 117.464 9.44901 121.473 15.271 124.296C27.0952 130.031 41.0231 131.671 54.6143 132.602C84.6909 134.658 114.926 133.769 145.082 132.875C156.242 132.547 167.45 132.212 178.429 130.486C184.526 129.528 190.819 128.006 195.247 124.334C200.865 119.673 202.257 111.781 198.492 105.937C192.176 96.1311 174.72 93.6966 170.301 83.1758C167.872 77.3836 170.366 70.9336 173.898 65.5633C181.473 54.0402 194.169 43.9315 194.837 30.7623C195.296 21.7173 189.193 12.6585 179.756 8.37768C169.865 3.89087 156.147 4.45543 148.853 11.882C141.336 19.5204 128.131 22.4621 116.81 22.0679Z" fill="#6C63FF"/>
<path id="Vector_3" d="M106.62 71.6582L100.553 67.5676L103.613 63.0114L87.5876 61.7337L81.8291 66.1869L74.6204 62.1458L68.6083 62.8688L68.537 61.2841C68.4626 59.632 68.2966 57.9853 68.0398 56.3515C68.0655 55.8563 68.0834 55.2878 68.0814 54.6697C68.0814 52.0648 67.7288 48.612 66.1797 46.3102L66.5362 43.105L63.6441 39.6879C64.1085 38.7627 64.6381 37.8717 65.2288 37.0216C65.3279 36.879 65.4269 36.7403 65.5339 36.6056C69.2878 36.3342 72.2493 33.2479 72.2493 29.4742C72.2493 29.2999 72.2493 29.1256 72.2295 28.9532C72.2295 28.8839 72.2156 28.8126 72.2077 28.7433C72.5741 28.9414 72.9446 29.1394 73.315 29.3375C73.3843 29.4366 73.4636 29.5356 73.5507 29.6525L73.5686 29.6743L73.6795 29.811L73.7152 29.8526C73.7548 29.9001 73.7964 29.9457 73.838 29.9932L73.8657 30.0249C73.9707 30.1418 74.0816 30.2607 74.2005 30.3775C74.2146 30.389 74.2279 30.4016 74.2401 30.4152L74.3887 30.5538L74.4303 30.5915C74.5571 30.7044 74.6918 30.8133 74.8265 30.9163L74.87 30.948L75.0404 31.0649L75.0959 31.1006C75.1612 31.1402 75.2286 31.1818 75.294 31.2194L75.3177 31.2333C75.395 31.2749 75.4742 31.3145 75.5535 31.3521L75.5931 31.368C75.6604 31.397 75.7265 31.4248 75.7912 31.4512L75.8526 31.473C75.9219 31.4968 75.9893 31.5185 76.0606 31.5384L76.1042 31.5502C76.1913 31.572 76.2785 31.5899 76.3676 31.6037H76.3775C76.4615 31.6173 76.5461 31.6259 76.6311 31.6295H76.6885C76.7644 31.6334 76.8405 31.6334 76.9163 31.6295H76.9659C77.0609 31.624 77.1555 31.6128 77.2491 31.5958C77.6924 31.5375 78.1179 31.3849 78.4971 31.1481C78.5937 31.0836 78.6793 31.004 78.7507 30.9124C79.1469 30.3934 78.7111 29.8248 78.7111 29.8248C78.5566 29.4564 77.5542 29.1969 77.5542 29.1969C77.5542 29.1969 74.3847 27.8736 74.3847 26.8198C74.3847 25.7659 73.5923 20.2985 65.4131 19.0486C65.4131 19.0486 60.0923 18.7494 58.5967 21.598L58.565 21.9308C58.1252 22.2062 57.7607 22.7589 57.3269 22.9213C57.1395 22.9615 56.9587 23.0282 56.79 23.1194V23.0817C56.74 23.1255 56.6989 23.1787 56.6692 23.2382C56.576 23.4237 56.5202 23.6256 56.5048 23.8325C56.4602 24.0853 56.3724 24.3286 56.2453 24.5516C56.2099 24.615 56.1701 24.6759 56.1264 24.7338L56.0928 24.7873C56.3227 24.8053 56.5537 24.7679 56.7663 24.6784C56.7328 24.9496 56.6662 25.2157 56.5682 25.4708C56.6941 25.4748 56.8186 25.4426 56.9267 25.378C57.0349 25.3134 57.1222 25.2191 57.1783 25.1063V25.0904L57.2041 25.0548C57.2539 24.9631 57.295 24.8669 57.3269 24.7675L57.3051 24.7913C57.3447 24.6625 57.3804 24.5318 57.4239 24.405C57.4439 24.3336 57.4768 24.2665 57.521 24.2069C57.5739 24.1536 57.6385 24.1135 57.7098 24.0897C57.781 24.066 57.8568 24.0593 57.9311 24.0702L57.8498 25.7877H57.8855C57.8378 25.9126 57.7795 26.0332 57.7112 26.1482C57.4299 26.6038 56.9188 26.9149 56.7306 27.414C56.6495 27.6548 56.6185 27.9096 56.6395 28.1628C56.6395 28.3114 56.6573 28.462 56.6692 28.6105V28.5986C56.6969 28.9948 56.7049 29.3712 56.4909 29.6901C56.3443 29.908 56.1086 30.0725 56.0274 30.3201C56.0049 30.3891 55.9949 30.4615 55.9977 30.534C56.0136 30.7511 56.0589 30.965 56.1324 31.1699C56.1332 31.166 56.1332 31.1619 56.1324 31.158C56.1818 31.3087 56.1933 31.4693 56.1661 31.6255C56.0769 32.0217 55.5955 32.3525 55.6193 32.7309C55.618 32.7806 55.6253 32.8303 55.6411 32.8775C55.7337 33.0623 55.8941 33.2042 56.0888 33.2737C56.3942 33.4473 56.745 33.5247 57.0951 33.4955C57.2263 33.4718 57.3532 33.4284 57.4715 33.3668C57.3328 33.6857 57.1902 34.0007 57.0456 34.2998C57.0238 34.3473 57 34.3949 56.9763 34.4424C56.9763 34.4424 55.752 33.6243 55.0567 35.2922C54.8537 35.6388 54.7086 36.0162 54.6269 36.4095C54.592 36.5668 54.543 36.7206 54.4803 36.869C54.1716 37.3916 53.7096 37.8066 53.157 38.0576C51.7387 38.7074 46.0098 45.8526 45.9088 47.7028C45.8592 48.425 45.7371 49.1404 45.5443 49.8382C45.0933 51.4815 44.9774 53.1987 45.2036 54.8876C45.2743 55.4335 45.3916 55.9723 45.5542 56.4981C46.1623 58.3463 46.5684 61.7952 46.5684 61.7952L47.2261 67.7815C47.2017 68.6078 47.2374 69.4347 47.3331 70.2557C46.6615 71.0224 43.9655 74.2176 44.9956 75.0872C45.7879 75.7726 47.1746 75.6597 47.9531 75.5191C47.2974 77.1415 46.2653 79.9623 46.1287 81.8997C45.9306 84.7661 46.4674 88.5635 47.3172 90.0215C48.167 91.4795 50.9998 95.2195 50.9998 95.2195C50.9998 95.2195 50.8671 100.35 51.8793 102.214C52.8916 104.078 53.2996 107.945 53.2996 107.945C53.2996 107.945 54.2445 111.21 53.7711 112.41C53.2977 113.61 54.6487 114.609 53.2303 115.407C51.812 116.205 49.9974 134.198 49.9974 134.198C49.9974 134.198 49.2665 145.991 49.9974 146.591C50.0365 146.619 50.0783 146.644 50.1222 146.664V150.626C50.1222 150.626 49.6151 151.458 51.6773 151.627C53.0897 151.74 57.0931 151.995 59.4683 152.144L61.3086 152.259C61.3086 152.259 65.6666 153.126 67.5921 152.259C69.5176 151.391 72.9307 151.411 72.4236 149.119C72.3563 148.807 72.2663 148.5 72.1542 148.202C71.5975 146.779 70.6526 146.617 68.9114 146.221C68.8104 146.199 68.7133 146.179 68.6242 146.163C66.7898 145.844 66.1876 146.698 65.1595 145.587C64.2661 144.626 61.4215 143.55 60.4528 143.21C60.4766 143.138 60.5063 143.069 60.5301 142.996C60.2558 142.949 60.0006 142.825 59.7951 142.637L62.4199 142.803L63.9828 142.901C63.9828 142.901 67.6872 143.639 69.3313 142.901C70.9755 142.162 73.8677 142.181 73.4358 140.234C73.379 139.969 73.3028 139.708 73.208 139.454C72.7346 138.245 71.9303 138.113 70.4506 137.778C70.3654 137.76 70.2862 137.742 70.2069 137.728C68.6479 137.457 68.1368 138.182 67.2633 137.239C66.5145 136.435 64.1512 135.533 63.3014 135.226C63.3014 134.787 62.7071 134.161 62.3327 133.533C61.8929 132.8 62.7051 130.234 62.7051 130.234L63.1687 119.591C63.3452 119.512 63.5319 119.459 63.7233 119.432C63.7233 119.432 65.8191 117.432 65.3457 115.3C65.2492 114.656 65.1989 114.005 65.1952 113.353C65.8845 112.713 66.8334 111.768 67.1028 111.186C67.5426 110.237 67.1028 105.639 67.1028 105.639V88.0584L70.609 88.413L73.7904 88.7398L74.7591 88.8389L77.9405 89.1598L85.2521 89.8987L91.8407 88.6507L94.6913 88.1119L100.553 87.0026V72.6606L106.62 71.6582ZM58.3629 24.1336L57.9548 24.09C58.0895 24.096 58.2322 24.1217 58.3629 24.1336Z" fill="url(#paint0_linear_323_1478)"/>
<path id="Vector_4" d="M92.3993 80.9709C90.4184 83.8056 83.2969 82.304 83.2969 82.304L77.778 77.1397L77.0352 76.4405L78.2812 73.7939C78.2812 73.7939 78.6774 73.9029 79.3568 74.097C82.9245 75.1331 94.0712 78.5878 92.3993 80.9709Z" fill="#EFB7B9"/>
<path id="Vector_5" opacity="0.1" d="M79.3529 74.097C79.1092 74.9449 78.4416 76.2147 77.778 77.1397L77.0352 76.4405L78.2812 73.7939C78.2812 73.7939 78.6813 73.9029 79.3529 74.097Z" fill="black"/>
<path id="Vector_6" d="M60.4264 44.2522C60.4264 44.2522 55.3394 46.5085 55.589 52.0491C55.7686 55.6187 56.1575 59.1747 56.7538 62.6986C56.7538 62.6986 55.7138 71.0364 60.0441 73.1857C64.3744 75.335 68.3818 77.102 68.3818 77.102C68.3818 77.102 75.1566 77.831 75.9985 78.1321C76.8404 78.4332 79.4711 73.8295 78.9858 73.1124C78.5005 72.3953 72.2823 70.8918 71.4899 69.6953C70.6976 68.4988 68.8652 67.7599 68.8652 67.7599C68.8652 67.7599 66.9734 66.615 66.8446 65.5809C66.7159 64.5469 67.2151 63.7763 67.3419 63.3226C67.4686 62.869 67.7895 58.4892 67.7895 58.4892C67.7895 58.4892 69.925 42.8992 60.4264 44.2522Z" fill="#DCE6F2"/>
<path id="Vector_7" opacity="0.1" d="M63.783 62.4707C63.783 62.4707 56.8041 63.6395 57.4796 66.0819C57.4796 66.0819 60.0133 63.4453 63.783 62.4707Z" fill="black"/>
<path id="Vector_8" opacity="0.1" d="M63.836 63.459C63.836 63.459 59.9989 66.5908 60.7497 66.7513C61.5005 66.9118 63.836 63.459 63.836 63.459Z" fill="black"/>
<path id="Vector_9" opacity="0.1" d="M65.6816 64.5508C65.6816 64.5508 64.6535 66.6565 65.2854 66.5139C65.9174 66.3713 65.6816 64.5508 65.6816 64.5508Z" fill="black"/>
<path id="Vector_10" opacity="0.1" d="M79.61 74.3206L79.1861 74.1998C79.3069 73.8036 79.3406 73.4827 79.2415 73.3341C78.7562 72.617 72.542 71.1155 71.7516 69.917C70.9612 68.7185 69.1269 67.9816 69.1269 67.9816C69.1269 67.9816 67.2351 66.8366 67.1063 65.8026C66.9776 64.7685 67.4768 63.998 67.6036 63.5443C67.7303 63.0907 68.0512 58.7089 68.0512 58.7089C68.0512 58.7089 70.1808 43.1209 60.6822 44.4739C60.6822 44.4739 55.5951 46.7321 55.8427 52.2728C56.0224 55.8425 56.412 59.3984 57.0095 62.9223C57.0095 62.9223 55.9695 71.2601 60.2998 73.4094C64.6302 75.5587 68.6376 77.3257 68.6376 77.3257C68.6376 77.3257 75.4104 78.0527 76.2543 78.3558C76.5732 78.4707 77.1497 77.8784 77.7142 77.0642L78.0352 77.3633L83.554 82.5256C83.554 82.5256 90.6755 84.0292 92.6564 81.1945C94.3303 78.8094 83.1856 75.3547 79.61 74.3206Z" fill="black"/>
<path id="Vector_11" d="M57.4972 23.4562C57.3033 23.4941 57.1175 23.5658 56.9485 23.6682C56.7504 23.8326 56.7504 24.1139 56.7009 24.3595C56.6427 24.7012 56.5072 25.0251 56.3047 25.3064C56.5301 25.3229 56.7562 25.2856 56.9643 25.1974C56.9304 25.4686 56.8639 25.7346 56.7662 25.9898C56.8897 25.9929 57.0114 25.9604 57.1168 25.8961C57.2222 25.8318 57.3068 25.7385 57.3605 25.6273C57.4653 25.4041 57.5483 25.1712 57.6081 24.932C57.6267 24.8604 57.659 24.7932 57.7032 24.7339C57.8855 24.518 58.2242 24.615 58.5055 24.6428C58.7396 24.6625 58.9747 24.6193 59.1865 24.5176C59.3983 24.4159 59.579 24.2594 59.7099 24.0643C60.009 23.6107 60.0269 22.4499 59.3137 22.3271C58.5689 22.2042 58.1054 23.2304 57.4972 23.4562Z" fill="#965D7B"/>
<g id="Group" opacity="0.1">
<path id="Vector_12" d="M56.9282 23.9119C56.946 23.8148 56.9579 23.7138 56.9797 23.6167C56.7915 23.7811 56.7816 24.0604 56.7321 24.308C56.7072 24.4509 56.668 24.5909 56.6152 24.726C56.7712 24.4774 56.8775 24.2009 56.9282 23.9119Z" fill="black"/>
<path id="Vector_13" d="M56.9917 25.5482C57.0903 25.2933 57.1568 25.0272 57.1897 24.7559C56.9914 24.8393 56.7767 24.8766 56.5618 24.8648C56.4992 25.0041 56.4229 25.1369 56.334 25.261C56.5586 25.2784 56.7841 25.2417 56.9917 25.154C56.9588 25.4253 56.8922 25.6915 56.7936 25.9464C56.9169 25.9493 57.0386 25.9167 57.1439 25.8524C57.2493 25.7881 57.334 25.6949 57.3878 25.5839C57.4372 25.4938 57.477 25.3989 57.5067 25.3006C57.4486 25.3818 57.3709 25.4471 57.2809 25.4904C57.1909 25.5337 57.0914 25.5536 56.9917 25.5482Z" fill="black"/>
<path id="Vector_14" d="M58.7301 24.2011C58.4488 24.1734 58.1081 24.0764 57.9258 24.2923C57.8824 24.352 57.8502 24.4191 57.8307 24.4904C57.8129 24.5419 57.7971 24.5954 57.7832 24.6488C57.9714 24.5003 58.2765 24.5795 58.532 24.6053C58.766 24.6244 59.0009 24.5809 59.2126 24.4792C59.4242 24.3776 59.605 24.2214 59.7364 24.0268C59.7964 23.9306 59.8412 23.8257 59.8691 23.7158C59.7335 23.8837 59.5587 24.0158 59.3601 24.1004C59.1615 24.185 58.9452 24.2196 58.7301 24.2011Z" fill="black"/>
</g>
<path id="Vector_15" d="M63.4597 39.8169L66.4806 43.4499L66.0864 47.1166L62.4355 41.4016L63.4597 39.8169Z" fill="#DCE6F2"/>
<path id="Vector_16" opacity="0.1" d="M66.4786 43.4499L66.1082 46.8987L66.0844 47.1166L62.7901 41.9583L62.4355 41.4016L62.5386 41.2412L63.4577 39.8169L63.6617 40.0625L66.4786 43.4499Z" fill="black"/>
<path id="Vector_17" d="M68.0488 34.8982C67.0267 35.1914 66.0501 36.1977 65.2002 37.4199C64.6258 38.2632 64.1121 39.1463 63.663 40.0625C63.3837 40.6211 63.1381 41.1579 62.9341 41.6254L62.7914 41.9582C62.4467 42.7724 62.2546 43.3172 62.2546 43.3172C62.2546 43.3172 54.4299 37.4338 55.668 37.0376C56.084 36.9049 56.6307 36.0135 57.1715 34.8903L57.2389 34.7476C57.5816 34.0266 57.9183 33.2223 58.2174 32.4656C58.8296 30.9106 59.2832 29.5596 59.2832 29.5596C59.2832 29.5596 71.1688 34.0068 68.0488 34.8982Z" fill="#EFB7B9"/>
<path id="Vector_18" d="M72.7285 29.2285C72.7285 29.2285 74.5351 32.4971 76.9618 32.0513C79.3884 31.6056 78.39 30.2962 78.39 30.2962L72.7285 29.2285Z" fill="#444053"/>
<path id="Vector_19" d="M69.2296 142.37C67.629 143.101 64.0099 142.37 64.0099 142.37L62.4846 142.275C60.5036 142.148 57.1875 141.934 56.0148 141.839C54.3033 141.698 54.7232 140.997 54.7232 140.997V136.76L63.0273 134.656C63.0273 134.656 66.3097 135.779 67.2091 136.76C68.0629 137.695 68.5621 136.976 70.0854 137.245C70.1607 137.259 70.2399 137.275 70.3231 137.295C71.7692 137.626 72.5536 137.756 73.0172 138.955C73.1103 139.207 73.1851 139.465 73.241 139.727C73.6689 141.657 70.8282 141.643 69.2296 142.37Z" fill="#A36468"/>
<path id="Vector_20" opacity="0.1" d="M73.0172 138.955C72.7196 139.141 72.4068 139.301 72.0822 139.434C70.9927 139.931 69.9566 140.537 68.8552 141.007C67.7538 141.476 66.5673 141.811 65.3747 141.722C64.7507 141.676 64.1129 141.524 63.5166 141.702C63.1479 141.845 62.8006 142.037 62.4846 142.275C60.5036 142.148 57.1875 141.934 56.0148 141.839C54.3033 141.698 54.7232 140.997 54.7232 140.997V140.502C54.7847 140.502 54.854 140.484 54.9332 140.478C55.3432 140.471 55.7514 140.532 56.1416 140.658C57.0013 140.892 57.8571 141.122 58.7168 141.352C58.7875 141.085 58.9118 140.835 59.0821 140.618C59.2524 140.401 59.4651 140.22 59.7073 140.088C60.198 139.827 60.7487 139.701 61.3039 139.721C62.6371 139.739 63.8989 140.371 65.2301 140.434C65.6023 140.469 65.977 140.406 66.3177 140.252C66.4999 140.161 66.6604 140.028 66.8386 139.927C67.124 139.789 67.4254 139.687 67.736 139.624C68.609 139.407 69.4661 139.13 70.3013 138.796C70.539 138.703 70.8164 138.535 70.7847 138.281C70.7431 137.944 70.2142 137.905 70.0755 137.596C70.051 137.54 70.0397 137.479 70.0425 137.419C70.0452 137.358 70.0619 137.298 70.0913 137.245C70.1666 137.259 70.2459 137.275 70.3291 137.295C71.7692 137.625 72.5536 137.756 73.0172 138.955Z" fill="black"/>
<path id="Vector_21" d="M67.5375 151.641C65.6556 152.5 61.3966 151.641 61.3966 151.641L59.6039 151.536C57.2822 151.387 53.3719 151.139 51.9911 151.023C49.9765 150.856 50.4718 150.032 50.4718 150.032V145.038L60.2437 142.562C60.2437 142.562 64.1065 143.883 65.1644 145.038C66.1687 146.138 66.7491 145.292 68.5498 145.609C68.6389 145.625 68.732 145.644 68.8291 145.666C70.5307 146.062 71.4538 146.211 71.9986 147.621C72.1089 147.917 72.1969 148.221 72.2621 148.531C72.7533 150.801 69.4194 150.783 67.5375 151.641Z" fill="#A36468"/>
<path id="Vector_22" opacity="0.1" d="M71.9946 147.621C71.6446 147.84 71.2768 148.029 70.8952 148.186C69.6135 148.77 68.3933 149.483 67.0978 150.036C65.8022 150.589 64.4057 150.981 63.0012 150.878C62.2682 150.825 61.5175 150.64 60.8222 150.854C60.3865 151.024 59.9765 151.253 59.6039 151.536C57.2822 151.387 53.3719 151.14 51.9911 151.023C49.9765 150.856 50.4718 150.032 50.4718 150.032V149.45C50.5538 149.436 50.6364 149.427 50.7194 149.422C51.202 149.413 51.6826 149.485 52.1417 149.634L55.1705 150.45C55.2549 150.135 55.4026 149.841 55.6046 149.585C55.8066 149.329 56.0586 149.118 56.3452 148.962C56.9226 148.655 57.5713 148.506 58.2252 148.531C59.7941 148.552 61.2778 149.295 62.8447 149.371C63.2811 149.41 63.7203 149.337 64.1204 149.159C64.3363 149.05 64.5166 148.893 64.7345 148.776C65.0695 148.612 65.4244 148.492 65.7903 148.42C66.8119 148.162 67.8152 147.836 68.7934 147.445C69.0728 147.334 69.3996 147.136 69.362 146.839C69.3124 146.443 68.6904 146.395 68.526 146.031C68.4983 145.965 68.4857 145.894 68.4891 145.822C68.4925 145.751 68.5119 145.681 68.5458 145.619C68.635 145.634 68.7281 145.654 68.8251 145.676C70.5268 146.056 71.4499 146.211 71.9946 147.621Z" fill="black"/>
<path id="Vector_23" d="M63.2786 117.372L62.7497 129.818C62.7497 129.818 61.9573 132.36 62.3872 133.087C62.8171 133.814 63.5421 134.539 63.2786 134.969C63.0152 135.399 59.8457 140.046 58.8215 138.263C57.7974 136.48 56.7871 128.755 56.7871 128.755L57.732 119.212L63.2786 117.372Z" fill="#444053"/>
<path id="Vector_24" d="M65.573 86.3628L67.0428 88.3279V105.419C67.0428 105.419 67.4727 109.976 67.0428 110.916C66.613 111.857 64.4339 113.739 64.4339 113.739L62.6016 104.33L62.9977 94.3757L65.573 86.3628Z" fill="#444053"/>
<path id="Vector_25" opacity="0.1" d="M63.2786 117.372L62.7497 129.818C62.7497 129.818 61.9573 132.36 62.3872 133.087C62.8171 133.814 63.5421 134.539 63.2786 134.969C63.0152 135.399 59.8457 140.046 58.8215 138.263C57.7974 136.48 56.7871 128.755 56.7871 128.755L57.732 119.212L63.2786 117.372Z" fill="black"/>
<path id="Vector_26" opacity="0.1" d="M65.573 86.3628L67.0428 88.3279V105.419C67.0428 105.419 67.4727 109.976 67.0428 110.916C66.613 111.857 64.4339 113.739 64.4339 113.739L62.6016 104.33L62.9977 94.3757L65.573 86.3628Z" fill="black"/>
<path id="Vector_27" d="M67.0418 79.0731V88.3181L65.3917 95.5149C65.3917 95.5149 64.8628 112.882 65.3243 114.993C65.7859 117.105 63.7396 119.088 63.7396 119.088C63.7396 119.088 62.551 119.221 62.551 120.144C62.551 121.067 60.5701 123.71 60.5701 123.71L60.6355 128.86C60.6355 128.86 61.4952 138.501 60.1739 140.349C58.8526 142.198 60.6355 142.463 60.6355 142.463C58.9854 147.877 51.0616 146.623 50.3465 146.029C49.6314 145.434 50.3465 133.747 50.3465 133.747C50.3465 133.747 52.1175 115.918 53.5041 115.126C54.8908 114.334 53.5715 113.343 54.033 112.155C54.4946 110.966 53.5715 107.731 53.5715 107.731C53.5715 107.731 53.1753 103.9 52.1848 102.052C51.1943 100.204 51.3251 95.1187 51.3251 95.1187C51.3251 95.1187 48.5518 91.4203 47.7277 89.9682C46.9036 88.5162 46.3727 84.7524 46.5708 81.9118C46.7055 79.9922 47.7138 77.1971 48.3537 75.5886C48.6607 74.818 48.8826 74.3188 48.8826 74.3188L49.0708 74.3684L59.8906 77.2011L67.0418 79.0731Z" fill="#444053"/>
<path id="Vector_28" opacity="0.1" d="M68.0482 34.8979C67.026 35.1911 66.0494 36.1974 65.1996 37.4196H64.9778C63.7321 37.4205 62.5083 37.0925 61.43 36.4689C60.3518 35.8452 59.4572 34.948 58.8369 33.8678C58.5776 33.4202 58.369 32.9452 58.2148 32.4514C58.827 30.8964 59.2806 29.5454 59.2806 29.5454C59.2806 29.5454 71.1682 34.0065 68.0482 34.8979Z" fill="black"/>
<path id="Vector_29" d="M72.0602 29.9456C72.0619 31.0295 71.8149 32.0993 71.338 33.0727C70.8612 34.046 70.1672 34.8969 69.3097 35.5599C68.4522 36.2228 67.454 36.68 66.3919 36.8964C65.3298 37.1127 64.2322 37.0824 63.1837 36.8077C62.1352 36.5331 61.1637 36.0214 60.3441 35.3121C59.5245 34.6028 58.8787 33.7149 58.4563 32.7167C58.0339 31.7185 57.8463 30.6366 57.9079 29.5545C57.9695 28.4724 58.2787 27.4188 58.8117 26.475C59.0264 26.0915 59.2771 25.7293 59.5605 25.3934C60.0276 24.8369 60.5767 24.3546 61.1888 23.9632C62.2227 23.3061 63.4095 22.9285 64.633 22.8673C65.8565 22.806 67.075 23.0632 68.1694 23.6137C69.2638 24.1642 70.1967 24.9892 70.8769 26.008C71.5571 27.0269 71.9614 28.2047 72.0503 29.4266C72.0542 29.6009 72.0602 29.7732 72.0602 29.9456Z" fill="#EFB7B9"/>
<path id="Vector_30" opacity="0.1" d="M66.1095 46.8986L66.0857 47.1165L62.7914 41.9661C62.4467 42.7803 62.2546 43.325 62.2546 43.325C62.2546 43.325 54.4299 37.4337 55.668 37.0375C56.084 36.9048 56.6307 36.0134 57.1715 34.8902L57.2389 34.7476C57.8133 36.4591 61.1512 39.8802 62.5398 41.251C62.7003 41.4094 62.833 41.5402 62.936 41.6353L63.148 41.8334L63.2589 41.9443C63.7641 42.4653 65.8955 44.7632 66.1095 46.8986Z" fill="black"/>
<path id="Vector_31" d="M68.5704 64.3744L68.2099 75.9767L68.1465 78.0428C68.1465 78.0428 63.8756 77.6466 59.8899 77.2108C56.6808 76.8602 53.6559 76.4818 53.1904 76.26C52.5961 75.9807 51.3224 75.7647 50.3181 75.6281C49.5415 75.5231 48.9314 75.4676 48.9314 75.4676C48.9314 75.4676 48.7036 75.535 48.353 75.5983C47.5883 75.737 46.2452 75.8499 45.4628 75.1705C44.4624 74.3008 47.0911 71.1412 47.7468 70.3825L47.8914 70.2181L47.6438 67.9301L47 61.9972C47 61.9972 46.6038 58.5801 46.0095 56.7478C45.8506 56.2268 45.736 55.6934 45.6668 55.1531C45.446 53.4796 45.5591 51.7788 45.9996 50.1493C46.1878 49.4568 46.3072 48.7475 46.3562 48.0316C46.4552 46.1993 52.0514 39.1174 53.438 38.4736C54.0618 38.1827 54.5637 37.6822 54.8564 37.0592C54.953 36.8634 55.0255 36.6565 55.0723 36.4432C55.6666 33.868 57.1701 34.8901 57.1701 34.8901C57.5326 36.9047 63.1446 42.2374 63.1446 42.2374L63.2555 42.3483C63.8122 42.9189 66.2923 45.5971 66.116 47.8831C66.0808 48.7339 66.2078 49.5837 66.4904 50.387C67.6319 53.9813 68.2881 57.7121 68.4416 61.4802L68.5704 64.3744Z" fill="#DCE6F2"/>
<path id="Vector_32" opacity="0.1" d="M60.619 50.5972C60.619 50.5972 59.2323 53.9648 58.1924 54.5095C57.1524 55.0543 61.1142 55.6585 60.619 50.5972Z" fill="black"/>
<path id="Vector_33" opacity="0.1" d="M61.6597 56.8867C61.6597 56.8867 58.4902 57.2829 58.4902 57.8772C58.4902 58.4715 61.6597 56.8867 61.6597 56.8867Z" fill="black"/>
<path id="Vector_34" opacity="0.1" d="M64.9775 60.7495C64.9775 60.7495 60.3719 70.5551 59.0842 70.8523C57.7966 71.1494 64.9775 60.7495 64.9775 60.7495Z" fill="black"/>
<path id="Vector_35" opacity="0.1" d="M63.0575 42.7346L59.2481 44.3906L54.6504 37.4455C54.747 37.2496 54.8195 37.0427 54.8663 36.8294C55.4606 34.2542 56.9641 35.2764 56.9641 35.2764C57.3266 37.291 62.9386 42.6236 62.9386 42.6236L63.0575 42.7346Z" fill="black"/>
<path id="Vector_36" d="M63.2567 42.3386L59.4474 43.9946L54.8496 37.0495C54.9462 36.8536 55.0187 36.6467 55.0655 36.4334C55.6598 33.8582 57.1633 34.8804 57.1633 34.8804C57.5259 36.895 63.1378 42.2276 63.1378 42.2276L63.2567 42.3386Z" fill="#DCE6F2"/>
<path id="Vector_37" opacity="0.1" d="M68.1467 78.0431C68.1467 78.0431 63.8758 77.6469 59.8902 77.2111L67.0414 79.083V81.2621C66.7284 81.5453 66.457 81.6919 66.2807 81.6167C65.4566 81.27 58.7313 80.1805 58.7313 80.1805C58.7313 80.1805 54.8249 78.1996 50.6095 75.8224C50.5072 75.7657 50.408 75.7036 50.3124 75.6362C49.8208 75.3025 49.3973 74.8783 49.0644 74.3862C48.2859 73.2591 47.9055 71.811 47.7411 70.3907C47.6487 69.5767 47.6142 68.7572 47.6381 67.9383C47.6585 67.0098 47.7432 66.0838 47.8917 65.167C47.484 61.616 47.2855 58.0442 47.2974 54.4699C47.3469 48.9233 52.5469 46.9424 52.5469 46.9424C62.1049 46.1005 59.1414 61.5518 59.1414 61.5518C59.1414 61.5518 58.5887 65.9098 58.4382 66.3555C58.2876 66.8013 57.7468 67.5441 57.8201 68.5841C57.8934 69.6241 59.7198 70.8681 59.7198 70.8681C59.7198 70.8681 61.5027 71.7041 62.2376 72.9421C62.7724 73.8554 66.247 75.0934 68.2101 75.9769L68.1467 78.0431Z" fill="black"/>
<path id="Vector_38" opacity="0.1" d="M71.3494 25.5478C71.353 25.874 71.2854 26.1972 71.1513 26.4947C71.0497 26.7374 70.9319 26.973 70.7987 27.1999C70.5902 27.6172 70.2942 27.9847 69.931 28.2775C69.4734 28.6043 68.895 28.6955 68.3463 28.8282C67.7975 28.9609 67.227 29.1729 66.914 29.6404C66.7444 29.9409 66.631 30.2698 66.5793 30.611C66.5268 30.9519 66.3907 31.2745 66.1831 31.55C66.075 31.6845 65.9253 31.7793 65.7575 31.8194C65.5897 31.8596 65.4133 31.8428 65.256 31.7719C65.0903 31.6602 64.9647 31.4985 64.8974 31.3103C64.6716 30.8012 64.6142 30.2366 64.5231 29.6879C64.4319 29.1392 64.3032 28.5746 63.9664 28.1329C63.6296 27.6911 63.0334 27.3999 62.5045 27.5723C62.3275 27.6404 62.166 27.7436 62.0299 27.8757C61.8937 28.0078 61.7856 28.166 61.7121 28.3409C61.5657 28.691 61.4652 29.0585 61.413 29.4344C61.1674 30.7788 60.8775 32.1152 60.5434 33.4438C60.5332 33.4982 60.5108 33.5497 60.478 33.5943C60.4253 33.6468 60.3542 33.6767 60.2799 33.6775C59.8362 33.737 59.4103 33.4259 58.9626 33.4596C58.9164 33.4627 58.8707 33.47 58.8259 33.4814C58.1021 32.2234 57.7824 30.7734 57.9104 29.3277C58.0383 27.882 58.6075 26.5105 59.541 25.3992L59.5767 25.3893C59.8745 25.2836 60.1451 25.1131 60.369 24.8901C60.655 24.6039 60.9198 24.2974 61.1614 23.9729L61.3199 23.7748C61.7752 23.2263 62.2939 22.7336 62.865 22.307C63.0209 22.1792 63.1998 22.0824 63.3919 22.0217C63.5564 21.9897 63.725 21.9843 63.8911 22.0059C64.5753 22.088 65.2649 22.1138 65.9533 22.0831C66.4329 22.0077 66.9163 21.9588 67.4013 21.9365C68.6553 21.9722 69.725 22.8577 70.5174 23.8283C70.9433 24.3255 71.3236 24.898 71.3494 25.5478Z" fill="black"/>
<path id="Vector_39" d="M57.8857 26.6633C57.6103 27.1149 57.1131 27.422 56.9269 27.9172C56.6535 28.6363 57.1151 29.5317 56.6912 30.1735C56.5505 30.3894 56.3187 30.5499 56.2395 30.7975C56.1048 31.2155 56.4733 31.6612 56.3782 32.0911C56.2831 32.5209 55.7165 32.8834 55.8671 33.3034C55.9561 33.4865 56.1121 33.6284 56.3029 33.6996C56.6031 33.8718 56.9485 33.9485 57.2934 33.9195C57.8342 33.8303 58.2363 33.2994 58.785 33.2598C59.2307 33.2281 59.6566 33.5371 60.1004 33.4797C60.1747 33.4771 60.2454 33.4467 60.2984 33.3945C60.3321 33.3504 60.3545 33.2987 60.3638 33.244C60.6966 31.9167 60.9871 30.5803 61.2354 29.2345C61.286 28.8586 61.3859 28.4909 61.5326 28.1411C61.6067 27.9666 61.7149 27.8086 61.851 27.6766C61.9871 27.5446 62.1483 27.4412 62.3249 27.3725C62.8538 27.2021 63.4481 27.4913 63.7869 27.9331C64.1256 28.3748 64.2544 28.9394 64.3455 29.4881C64.4366 30.0368 64.4941 30.6014 64.7179 31.1105C64.7859 31.2993 64.9122 31.4616 65.0784 31.574C65.3756 31.7464 65.7757 31.6097 66.0035 31.3522C66.2122 31.0766 66.3485 30.7531 66.3997 30.4112C66.4514 30.0706 66.5649 29.7424 66.7345 29.4425C67.0475 28.975 67.62 28.7631 68.1667 28.6304C68.7135 28.4976 69.2899 28.4045 69.7515 28.0777C70.1142 27.7852 70.4101 27.4185 70.6191 27.002C70.9123 26.4909 71.1857 25.9363 71.1619 25.348C71.1361 24.7061 70.7558 24.1336 70.3497 23.6344C69.5573 22.6638 68.4857 21.7783 67.2317 21.7446C66.7466 21.7649 66.263 21.8139 65.7837 21.8912C65.0953 21.9222 64.4055 21.8957 63.7215 21.812C63.5552 21.7921 63.3868 21.7981 63.2223 21.8298C63.0299 21.8886 62.8513 21.9856 62.6974 22.1151C62.1256 22.541 61.6063 23.033 61.1502 23.581C60.8562 23.9709 60.5372 24.3414 60.1954 24.6903C59.9714 24.9136 59.7008 25.0847 59.4031 25.1915C59.205 25.2469 59.0069 25.2073 58.8187 25.2687C58.2343 25.4529 58.1571 26.2156 57.8857 26.6633Z" fill="#965D7B"/>
<path id="Vector_40" opacity="0.1" d="M76.9618 32.0494C75.377 32.3406 74.0637 31.0589 73.3367 30.1239C73.1134 29.8399 72.9102 29.5408 72.7285 29.2285L78.1682 30.2546L78.388 30.2962C78.388 30.2962 79.3884 31.6056 76.9618 32.0494Z" fill="#FFC700"/>
<g id="Group_2" opacity="0.1">
<path id="Vector_41" d="M56.3778 31.5244C56.4 31.2653 56.3606 31.0046 56.2629 30.7637C56.2629 30.7835 56.2451 30.8033 56.2391 30.8231C56.154 31.0885 56.2688 31.3639 56.3421 31.6392C56.3579 31.6023 56.3698 31.5638 56.3778 31.5244Z" fill="black"/>
<path id="Vector_42" d="M56.85 28.2817C56.8296 28.5557 56.8349 28.8309 56.8659 29.1038C56.8862 28.8299 56.8809 28.5547 56.85 28.2817Z" fill="black"/>
<path id="Vector_43" d="M70.6071 26.4296C70.3986 26.8469 70.1027 27.2144 69.7395 27.5072C69.2819 27.834 68.7054 27.9252 68.1547 28.0579C67.604 28.1906 67.0355 28.4026 66.7225 28.8701C66.5532 29.1707 66.4397 29.4996 66.3877 29.8407C66.3361 30.1825 66.1999 30.5059 65.9915 30.7817C65.7637 31.0392 65.3636 31.1779 65.0664 31.0035C64.9002 30.8911 64.7739 30.7288 64.7059 30.54C64.4821 30.0309 64.4226 29.4683 64.3335 28.9176C64.2443 28.3669 64.1116 27.8043 63.7749 27.3626C63.4381 26.9208 62.8418 26.6296 62.3129 26.802C62.1361 26.8704 61.9748 26.9737 61.8387 27.1058C61.7025 27.2378 61.5944 27.3959 61.5206 27.5706C61.3739 27.9204 61.274 28.2881 61.2234 28.6641C60.9765 30.0098 60.6859 31.3462 60.3518 32.6735C60.3425 32.7282 60.3201 32.7799 60.2864 32.824C60.2334 32.8762 60.1627 32.9066 60.0883 32.9092C59.6446 32.9666 59.2187 32.6576 58.773 32.6893C58.2243 32.7289 57.8222 33.2598 57.2814 33.347C56.9364 33.3779 56.5903 33.3011 56.2909 33.1271C56.1532 33.0679 56.0296 32.9801 55.9284 32.8696C55.882 32.936 55.8513 33.012 55.8387 33.0919C55.826 33.1719 55.8316 33.2537 55.8551 33.3311C55.9423 33.5156 56.099 33.658 56.2909 33.7273C56.5903 33.9013 56.9364 33.9781 57.2814 33.9472C57.8222 33.86 58.2243 33.3292 58.773 33.2895C59.2187 33.2578 59.6446 33.5669 60.0883 33.5094C60.1627 33.5068 60.2334 33.4764 60.2864 33.4242C60.3201 33.3801 60.3425 33.3284 60.3518 33.2737C60.6846 31.9531 60.9751 30.6166 61.2234 29.2643C61.274 28.8883 61.3739 28.5207 61.5206 28.1708C61.5944 27.9961 61.7025 27.838 61.8387 27.706C61.9748 27.574 62.1361 27.4706 62.3129 27.4022C62.8418 27.2299 63.4361 27.5211 63.7749 27.9628C64.1136 28.4046 64.2424 28.9691 64.3335 29.5178C64.4246 30.0666 64.4821 30.6311 64.7059 31.1402C64.7739 31.329 64.9002 31.4914 65.0664 31.6038C65.3636 31.7761 65.7637 31.6394 65.9915 31.3819C66.1999 31.1062 66.3361 30.7827 66.3877 30.441C66.4397 30.0998 66.5532 29.771 66.7225 29.4703C67.0355 29.0028 67.608 28.7928 68.1547 28.6581C68.7015 28.5234 69.2779 28.4343 69.7395 28.1074C70.1027 27.8147 70.3986 27.4471 70.6071 27.0298C70.9003 26.5207 71.1737 25.966 71.1499 25.3777C71.146 25.302 71.1381 25.2267 71.1261 25.1519C71.0305 25.6053 70.8548 26.0379 70.6071 26.4296Z" fill="black"/>
</g>
<path id="Vector_44" opacity="0.1" d="M71.1578 26.4892C71.6658 27.3924 71.9669 28.3971 72.0393 29.4309C70.2743 28.4404 68.6143 27.3529 67.7763 26.9745C66.3164 26.3149 60.8569 26.4139 58.8047 26.4753C59.0194 26.0918 59.2701 25.7296 59.5535 25.3937C60.0224 24.8367 60.5735 24.3544 61.1878 23.9635C62.0012 23.4472 62.9114 23.1023 63.8627 22.9497C64.814 22.7972 65.7864 22.8402 66.7205 23.0763C67.6546 23.3123 68.5307 23.7363 69.2954 24.3225C70.06 24.9086 70.6971 25.6445 71.1677 26.4852L71.1578 26.4892Z" fill="black"/>
<path id="Vector_45" opacity="0.1" d="M77.457 31.2095C76.5042 31.5026 74.9491 30.9361 73.3367 30.1239C73.1134 29.8399 72.9102 29.5408 72.7285 29.2285L78.1682 30.2546C78.5287 30.5003 78.6198 30.8509 77.457 31.2095Z" fill="black"/>
<path id="Vector_46" d="M65.4004 19.6213C65.4004 19.6213 60.2004 19.3242 58.7385 22.147L58.5028 24.6489L58.1066 24.6053L58.0273 26.3069C58.0273 26.3069 65.9749 25.9603 67.7834 26.7764C69.592 27.5926 75.212 31.705 77.4643 31.0117C79.7166 30.3183 77.2662 29.6745 77.2662 29.6745C77.2662 29.6745 74.166 28.3612 74.166 27.3311C74.166 26.301 73.3974 20.8594 65.4004 19.6213Z" fill="#FFC700"/>
<path id="Vector_47" opacity="0.1" d="M55.3711 112.369C55.3711 112.369 58.6892 115.588 60.1253 115.34C60.1253 115.34 56.0644 114.993 55.3711 112.369Z" fill="black"/>
<path id="Vector_48" opacity="0.1" d="M54.6777 113.86C54.6777 113.86 54.9749 115.516 55.7672 115.354C56.5596 115.192 54.6777 113.86 54.6777 113.86Z" fill="black"/>
<path id="Vector_49" opacity="0.1" d="M59.8777 141.538C59.8777 141.538 55.167 145.203 55.9613 145.302C56.7557 145.401 59.8777 141.538 59.8777 141.538Z" fill="black"/>
<path id="Vector_50" d="M66.1777 68.8039L81.4309 66.3218V80.7628L66.9384 80.0041L66.1777 68.8039Z" fill="#6C63FF"/>
<path id="Vector_51" opacity="0.56" d="M66.1777 68.8039L81.4309 66.3218V80.7628L66.9384 80.0041L66.1777 68.8039Z" fill="#FFC700"/>
<path id="Vector_52" d="M81.4316 66.3218L99.7236 67.6906L98.7113 80.2577L81.4316 80.7628V66.3218Z" fill="#6C63FF"/>
<path id="Vector_53" opacity="0.64" d="M81.4316 66.3218L99.7236 67.6906L98.7113 80.2577L81.4316 80.7628V66.3218Z" fill="#FFC700"/>
<path id="Vector_54" opacity="0.72" d="M87.0555 61.9141L81.4316 66.3216L99.7236 67.6905L102.713 63.1799L87.0555 61.9141Z" fill="#FFC700"/>
<path id="Vector_55" opacity="0.73" d="M60.6562 63.9903L74.3881 62.3184L81.4323 66.3218L66.1791 68.8039L60.6562 63.9903Z" fill="#FFC700"/>
<path id="Vector_56" d="M84.7748 70.0715V89.8155L77.6295 89.0825L74.5214 88.7656L73.5745 88.6665L70.4684 88.3476L66.1777 87.9078V68.8037L81.429 69.8417L84.7748 70.0715Z" fill="#FFC700"/>
<path id="Vector_57" d="M99.7235 67.6904V86.9451L93.9966 88.0445L91.2114 88.5794L84.7754 89.8155V70.0715L99.7235 67.6904Z" fill="#6C63FF"/>
<path id="Vector_58" d="M99.7235 67.6904V86.9451L93.9966 88.0445L91.2114 88.5794L84.7754 89.8155V70.0715L99.7235 67.6904Z" fill="#FFC700"/>
<path id="Vector_59" d="M60.6562 72.9597L66.1791 68.8037L84.7761 70.0715L82.0385 74.6831L60.6562 72.9597Z" fill="#6C63FF"/>
<path id="Vector_60" opacity="0.71" d="M60.6562 72.9597L66.1791 68.8037L84.7761 70.0715L82.0385 74.6831L60.6562 72.9597Z" fill="#FFC700"/>
<path id="Vector_61" d="M99.7235 67.6904L84.7754 70.0715L89.6406 74.4296L105.652 71.7434L99.7235 67.6904Z" fill="#6C63FF"/>
<path id="Vector_62" opacity="0.84" d="M99.7235 67.6904L84.7754 70.0715L89.6406 74.4296L105.652 71.7434L99.7235 67.6904Z" fill="#FFC700"/>
<path id="Vector_63" opacity="0.1" d="M93.9961 88.0448L91.2109 88.5797V84.4653L93.8198 83.8076L93.9961 88.0448Z" fill="white"/>
<path id="Vector_64" opacity="0.1" d="M77.6296 86.3608V89.0826L74.5215 88.7657V86.3608H77.6296Z" fill="white"/>
<path id="Vector_65" opacity="0.1" d="M73.5749 87.2188V88.6668L70.4688 88.3479V87.2188H73.5749Z" fill="white"/>
<path id="Vector_66" opacity="0.1" d="M82.9053 84.9169C80.7758 87.6407 73.7435 85.7588 73.7435 85.7588L68.5178 80.3073L67.8086 79.5684L69.1952 76.9932C69.1952 76.9932 69.5914 77.1239 70.2531 77.3537C73.7554 78.5779 84.698 82.625 82.9053 84.9169Z" fill="black"/>
<path id="Vector_67" d="M82.708 84.5204C80.5785 87.2442 73.5462 85.3623 73.5462 85.3623L68.3205 79.9108L67.6113 79.1719L68.998 76.5967C68.998 76.5967 69.3942 76.7274 70.0558 76.9572C73.5581 78.1814 84.5008 82.2285 82.708 84.5204Z" fill="#EFB7B9"/>
<path id="Vector_68" opacity="0.1" d="M70.046 76.9572C69.7568 77.7892 69.0219 79.0213 68.3107 79.9108L67.6016 79.1719L68.9882 76.5967C68.9882 76.5967 69.3864 76.7274 70.046 76.9572Z" fill="black"/>
<path id="Vector_69" d="M52.7461 46.1502C52.7461 46.1502 47.5461 48.1311 47.4966 53.6777C47.4848 57.252 47.6832 60.8238 48.0909 64.3748C48.0909 64.3748 46.6052 72.6452 50.8147 75.0223C55.0241 77.3994 58.9365 79.3803 58.9365 79.3803C58.9365 79.3803 65.6618 80.4699 66.4878 80.8165C67.3139 81.1632 70.1842 76.7061 69.7385 75.9632C69.2928 75.2204 63.1697 73.388 62.4427 72.1499C61.7157 70.9118 59.925 70.0779 59.925 70.0779C59.925 70.0779 58.0986 68.8319 58.0253 67.7919C57.952 66.7519 58.4908 66.009 58.6433 65.5633C58.7958 65.1176 59.3485 60.7596 59.3485 60.7596C59.3485 60.7596 62.3041 45.2984 52.7461 46.1502Z" fill="#DCE6F2"/>
<path id="Vector_70" opacity="0.1" d="M55.1231 64.5132C55.1231 64.5132 48.0908 65.3056 48.6356 67.7817C48.6356 67.7817 51.3078 65.2838 55.1231 64.5132Z" fill="black"/>
<path id="Vector_71" opacity="0.1" d="M55.1219 65.5039C55.1219 65.5039 51.1304 68.4258 51.8633 68.6239C52.5962 68.822 55.1219 65.5039 55.1219 65.5039Z" fill="black"/>
<path id="Vector_72" opacity="0.1" d="M56.9053 66.6924C56.9053 66.6924 55.7662 68.7407 56.41 68.6337C57.0538 68.5267 56.9053 66.6924 56.9053 66.6924Z" fill="black"/>
<path id="Vector_73" d="M130.126 22.2637C130.126 22.2637 122.598 21.81 123.478 27.0912C123.478 27.0912 123.301 28.0242 124.147 28.4481C124.147 28.4481 124.161 28.0519 124.92 28.1886C125.19 28.2341 125.465 28.2474 125.738 28.2283C126.108 28.2035 126.46 28.0581 126.74 27.8142C126.74 27.8142 128.858 26.9406 129.682 23.478C129.682 23.478 130.292 22.7213 130.276 22.5271L129.005 23.0719C129.005 23.0719 129.438 23.9891 129.096 24.7517C129.096 24.7517 129.056 23.1056 128.81 23.1432C128.761 23.1432 128.151 23.4621 128.151 23.4621C128.151 23.4621 128.898 25.0588 128.333 26.2216C128.333 26.2216 128.547 24.2525 127.917 23.577L127.022 24.1C127.022 24.1 127.895 25.7501 127.303 27.0971C127.303 27.0971 127.455 25.031 126.833 24.2268L126.021 24.8587C126.021 24.8587 126.843 26.487 126.342 27.6043C126.342 27.6043 126.277 25.1994 125.845 25.0172C125.845 25.0172 125.136 25.6431 125.029 25.9007C125.029 25.9007 125.589 27.0892 125.241 27.7053C125.241 27.7053 125.027 26.1027 124.845 26.0948C124.845 26.0948 124.137 27.1566 124.064 27.8776C124.098 27.2054 124.308 26.5539 124.672 25.9878C124.265 26.0649 123.889 26.2598 123.591 26.5484C123.591 26.5484 123.7 25.7976 124.847 25.7323C124.847 25.7323 125.441 24.926 125.587 24.8765C125.587 24.8765 124.446 24.7814 123.755 25.0885C123.755 25.0885 124.363 24.3813 125.797 24.6923L126.59 24.0386C126.59 24.0386 125.088 23.8405 124.45 24.0604C124.45 24.0604 125.183 23.4344 126.806 23.89L127.677 23.369C127.677 23.369 126.398 23.0917 125.635 23.1927C125.635 23.1927 126.439 22.7589 127.933 23.2284L128.557 22.9491C128.557 22.9491 127.618 22.7648 127.345 22.7351C127.071 22.7054 127.055 22.6301 127.055 22.6301C127.649 22.5313 128.259 22.5999 128.816 22.8282C128.816 22.8282 130.153 22.3469 130.126 22.2637Z" fill="#FFC700"/>
<path id="Vector_74" opacity="0.1" d="M152.997 48.6777C152.997 48.6777 145.469 48.2241 146.349 53.5053C146.349 53.5053 146.173 54.4383 147.018 54.8622C147.018 54.8622 147.032 54.466 147.793 54.6027C148.063 54.6482 148.338 54.6615 148.611 54.6423C148.977 54.6158 149.325 54.4712 149.602 54.2303C149.602 54.2303 151.721 53.3547 152.545 49.892C152.545 49.892 153.153 49.1373 153.13 48.9432L151.858 49.4859C151.858 49.4859 152.292 50.4031 151.951 51.1658C151.951 51.1658 151.909 49.5196 151.666 49.5573C151.616 49.5573 151.004 49.8762 151.004 49.8762C151.004 49.8762 151.753 51.4748 151.188 52.6356C151.188 52.6356 151.402 50.6666 150.77 49.9911L149.885 50.5081C149.885 50.5081 150.758 52.1582 150.166 53.5053C150.166 53.5053 150.319 51.4391 149.697 50.6349L148.886 51.2688C148.886 51.2688 149.707 52.8951 149.207 54.0124C149.207 54.0124 149.142 51.6075 148.71 51.4253C148.71 51.4253 148.001 52.0512 147.892 52.3088C147.892 52.3088 148.455 53.4973 148.106 54.1134C148.106 54.1134 147.892 52.5108 147.71 52.5029C147.71 52.5029 147.003 53.5647 146.929 54.2857C146.965 53.6134 147.175 52.962 147.539 52.3959C147.131 52.4732 146.755 52.6681 146.456 52.9565C146.456 52.9565 146.567 52.2058 147.714 52.1404C147.714 52.1404 148.298 51.3342 148.455 51.2846C148.455 51.2846 147.314 51.1895 146.622 51.4966C146.622 51.4966 147.23 50.7894 148.663 51.1103L149.455 50.4566C149.455 50.4566 147.951 50.2585 147.316 50.4784C147.316 50.4784 148.048 49.8524 149.671 50.308L150.542 49.787C150.542 49.787 149.261 49.5117 148.498 49.6107C148.498 49.6107 149.304 49.1769 150.798 49.6464L151.422 49.3671C151.422 49.3671 150.483 49.1829 150.208 49.1531C149.932 49.1234 149.918 49.0482 149.918 49.0482C150.513 48.9492 151.124 49.0178 151.681 49.2462C151.681 49.2462 153.021 48.7609 152.997 48.6777Z" fill="#6C63FF"/>
<path id="Vector_75" opacity="0.1" d="M107.267 43.9885C107.267 43.9885 109 36.6412 103.644 36.6154C103.644 36.6154 102.754 36.2826 102.194 37.0433C102.194 37.0433 102.576 37.1245 102.316 37.8496C102.227 38.1059 102.167 38.3718 102.138 38.6419C102.1 39.0102 102.182 39.3808 102.374 39.6978C102.374 39.6978 102.875 41.9362 106.138 43.3387C106.138 43.3387 106.779 44.0677 106.974 44.0756L106.657 42.7306C106.657 42.7306 105.678 43.002 104.985 42.5325C104.985 42.5325 106.615 42.7722 106.617 42.5325C106.617 42.483 106.419 41.8273 106.419 41.8273C106.419 41.8273 104.717 42.2908 103.667 41.5361C103.667 41.5361 105.571 42.0828 106.346 41.5777L105.989 40.6031C105.989 40.6031 104.206 41.1835 102.986 40.3693C102.986 40.3693 104.997 40.8725 105.896 40.397L105.411 39.4898C105.411 39.4898 103.667 40.0207 102.651 39.3373C102.651 39.3373 105.028 39.6819 105.286 39.2897C105.286 39.2897 104.791 38.4835 104.555 38.3329C104.555 38.3329 103.295 38.6855 102.74 38.2359C102.74 38.2359 104.355 38.2973 104.392 38.1269C104.392 38.1269 103.467 37.2493 102.762 37.0513C103.419 37.2009 104.026 37.519 104.523 37.9744C104.516 37.5592 104.388 37.1551 104.155 36.8116C104.155 36.8116 104.876 37.0493 104.749 38.1982C104.749 38.1982 105.442 38.9113 105.464 39.0738C105.464 39.0738 105.751 37.9664 105.567 37.2315C105.567 37.2315 106.161 37.9526 105.601 39.3095L106.108 40.2108C106.108 40.2108 106.567 38.7648 106.451 38.0992C106.451 38.0992 106.944 38.9272 106.217 40.4486L106.583 41.3974C106.583 41.3974 107.073 40.1811 107.104 39.4165C107.104 39.4165 107.395 40.2841 106.676 41.6767L106.847 42.3384C106.847 42.3384 107.187 41.445 107.263 41.1795C107.338 40.9141 107.415 40.9121 107.415 40.9121C107.412 41.5147 107.241 42.1047 106.922 42.6157C106.922 42.6157 107.182 43.9984 107.267 43.9885Z" fill="#6C63FF"/>
<path id="Vector_76" opacity="0.1" d="M90.7811 46.4928C90.7811 46.4928 84.7352 41.9703 82.574 46.8692C82.574 46.8692 81.9144 47.5526 82.3878 48.3707C82.3878 48.3707 82.6137 48.0518 83.1802 48.5807C83.3809 48.7674 83.603 48.9296 83.8418 49.064C84.1654 49.2442 84.5389 49.3137 84.9056 49.2621C84.9056 49.2621 87.1559 49.696 89.747 47.2574C89.747 47.2574 90.6721 46.9603 90.7593 46.786L89.3944 46.5463C89.3944 46.5463 89.2518 47.5506 88.5485 48.0003C88.5485 48.0003 89.4182 46.6017 89.1923 46.5007C89.1468 46.4789 88.4653 46.4017 88.4653 46.4017C88.4653 46.4017 88.2118 48.1489 87.1025 48.8085C87.1025 48.8085 88.3643 47.2812 88.2078 46.37L87.1718 46.3145C87.1718 46.3145 86.9955 48.1746 85.7594 48.9749C85.7594 48.9749 87.0212 47.3327 86.9479 46.3185L85.9218 46.4017C85.9218 46.4017 85.7138 48.2103 84.6818 48.8679C84.6818 48.8679 85.9476 46.8236 85.6881 46.4353C85.6881 46.4353 84.7511 46.5681 84.5193 46.7226C84.5193 46.7226 84.3391 48.0181 83.7052 48.3469C83.7052 48.3469 84.4084 46.891 84.2658 46.7899C84.2658 46.7899 83.0911 47.2871 82.6295 47.8537C83.0288 47.3112 83.5627 46.8824 84.1786 46.6097C83.7954 46.4504 83.3741 46.4063 82.9663 46.4829C82.9663 46.4829 83.4694 45.9163 84.4639 46.4928C84.4639 46.4928 85.3949 46.1422 85.5534 46.1857C85.5534 46.1857 84.652 45.4785 83.9052 45.3557C83.9052 45.3557 84.8046 45.0982 85.8248 46.1481L86.8529 46.0431C86.8529 46.0431 85.7099 45.0526 85.0542 44.8862C85.0542 44.8862 86.011 44.7654 87.1143 46.0372L88.1286 46.0827C88.1286 46.0827 87.2114 45.1477 86.5201 44.811C86.5201 44.811 87.4293 44.8902 88.4198 46.1045L89.0953 46.2135C89.0953 46.2135 88.4119 45.5439 88.1979 45.3696C87.984 45.1953 88.0137 45.122 88.0137 45.122C88.5648 45.366 89.0373 45.7583 89.3786 46.2551C89.3786 46.2551 90.7553 46.574 90.7811 46.4928Z" fill="#6C63FF"/>
<path id="Vector_77" opacity="0.1" d="M110.91 4.47511C110.91 4.47511 104.864 -0.0493443 102.703 4.85149C102.703 4.85149 102.043 5.53491 102.517 6.35304C102.517 6.35304 102.743 6.03411 103.309 6.56302C103.511 6.74874 103.734 6.91029 103.973 7.04438C104.296 7.22468 104.67 7.29424 105.036 7.24248C105.036 7.24248 107.287 7.6763 109.878 5.23579C109.878 5.23579 110.803 4.94063 110.888 4.76433L109.523 4.5286C109.523 4.5286 109.383 5.53293 108.677 5.9826C108.677 5.9826 109.549 4.58406 109.323 4.48304C109.278 4.46125 108.596 4.38399 108.596 4.38399C108.596 4.38399 108.335 6.13513 107.225 6.79082C107.225 6.79082 108.485 5.26352 108.331 4.35229L107.295 4.29683C107.295 4.29683 107.116 6.15693 105.882 6.95524C105.882 6.95524 107.144 5.31305 107.071 4.29881L106.047 4.38201C106.047 4.38201 105.837 6.19258 104.805 6.85025C104.805 6.85025 106.073 4.80593 105.813 4.41767C105.813 4.41767 104.876 4.55039 104.644 4.7049C104.644 4.7049 104.464 6.00043 103.83 6.32927C103.83 6.32927 104.533 4.87328 104.391 4.77027C104.391 4.77027 103.216 5.26947 102.754 5.83601C103.153 5.29298 103.687 4.86403 104.304 4.59199C103.92 4.43154 103.498 4.38745 103.089 4.46521C103.089 4.46521 103.594 3.89866 104.589 4.47511C104.589 4.47511 105.52 4.12251 105.678 4.16807C105.678 4.16807 104.777 3.46087 104.03 3.33607C104.03 3.33607 104.928 3.08053 105.948 4.12845L106.976 4.02346C106.976 4.02346 105.835 3.03299 105.177 2.86461C105.177 2.86461 106.134 2.74576 107.239 4.01752L108.254 4.0611C108.254 4.0611 107.336 3.1261 106.643 2.79132C106.643 2.79132 107.554 2.87055 108.545 4.08487L109.218 4.19382C109.218 4.19382 108.533 3.53219 108.319 3.36183C108.105 3.19147 108.135 3.11619 108.135 3.11619C108.686 3.35996 109.159 3.75229 109.5 4.24929C109.5 4.24929 110.876 4.55039 110.91 4.47511Z" fill="#6C63FF"/>
<path id="Vector_78" opacity="0.1" d="M134.01 10.2057C134.01 10.2057 131.594 3.05254 127.036 5.86349C127.036 5.86349 126.105 6.06158 126.031 6.9946C126.031 6.9946 126.398 6.8599 126.56 7.61266C126.621 7.88042 126.712 8.14033 126.832 8.3872C126.995 8.71945 127.262 8.98978 127.592 9.15779C127.592 9.15779 129.201 10.7921 132.719 10.2513C132.719 10.2513 133.648 10.5326 133.818 10.4355L132.828 9.46285C132.828 9.46285 132.142 10.2097 131.306 10.1799C131.306 10.1799 132.818 9.52228 132.693 9.31032C132.667 9.26872 132.15 8.81905 132.15 8.81905C132.15 8.81905 130.95 10.1126 129.662 10.0274C129.662 10.0274 131.566 9.48464 131.954 8.64076L131.134 8.00884C131.134 8.00884 129.934 9.43908 128.462 9.3955C128.462 9.3955 130.443 8.75962 130.944 7.88008L130.053 7.36702C130.053 7.36702 128.864 8.73981 127.632 8.69623C127.632 8.69623 129.835 7.73151 129.841 7.26401C129.841 7.26401 128.995 6.84207 128.715 6.83811C128.715 6.83811 127.832 7.80283 127.131 7.71567C127.131 7.71567 128.533 6.91339 128.474 6.74897C128.474 6.74897 127.226 6.49343 126.523 6.69945C127.159 6.47799 127.841 6.42677 128.503 6.55088C128.277 6.20203 127.955 5.92667 127.574 5.7585C127.574 5.7585 128.311 5.57824 128.805 6.61625C128.805 6.61625 129.771 6.85594 129.874 6.98074C129.874 6.98074 129.534 5.88924 128.989 5.36231C128.989 5.36231 129.874 5.66144 130.116 7.1095L131.023 7.60473C131.023 7.60473 130.649 6.13686 130.197 5.6238C130.197 5.6238 131.055 6.06753 131.241 7.74142L132.053 8.35353C132.053 8.35353 131.827 7.06196 131.447 6.3924C131.447 6.3924 132.152 6.9748 132.279 8.53775L132.772 9.00922C132.772 9.00922 132.59 8.07025 132.515 7.80481C132.44 7.53936 132.501 7.52153 132.501 7.52153C132.816 8.03542 132.982 8.6264 132.982 9.2291C132.982 9.2291 133.941 10.2572 134.01 10.2057Z" fill="#6C63FF"/>
<path id="Vector_79" opacity="0.1" d="M118.239 10.5584C118.239 10.5584 110.731 9.72249 111.351 15.0492C111.351 15.0492 111.127 15.9723 111.945 16.4359C111.945 16.4359 111.979 16.0397 112.738 16.218C113.006 16.2757 113.279 16.3029 113.554 16.2992C113.924 16.2925 114.282 16.1652 114.574 15.9367C114.574 15.9367 116.735 15.1701 117.743 11.753C117.743 11.753 118.389 11.0299 118.375 10.8338L117.078 11.3132C117.078 11.3132 117.474 12.2502 117.078 12.995C117.078 12.995 117.119 11.3488 116.88 11.3746C116.83 11.3746 116.204 11.6598 116.204 11.6598C116.204 11.6598 116.87 13.2941 116.248 14.4332C116.248 14.4332 116.561 12.476 115.964 11.7708L115.043 12.2462C115.043 12.2462 115.836 13.9399 115.172 15.2552C115.172 15.2552 115.43 13.199 114.849 12.3651L114.007 12.9593C114.007 12.9593 114.744 14.6253 114.188 15.7168C114.188 15.7168 114.245 13.3119 113.823 13.1079C113.823 13.1079 113.082 13.7022 112.961 13.9478C112.961 13.9478 113.463 15.1562 113.084 15.7604C113.084 15.7604 112.951 14.1499 112.777 14.134C112.777 14.134 112.016 15.1582 111.906 15.8812C111.974 15.2109 112.217 14.5702 112.611 14.0231C112.2 14.0799 111.814 14.2555 111.501 14.5282C111.501 14.5282 111.648 13.7854 112.797 13.7775C112.797 13.7775 113.421 13.0029 113.589 12.9613C113.589 12.9613 112.454 12.8088 111.747 13.0802C111.747 13.0802 112.391 12.4027 113.805 12.7969L114.639 12.1848C114.639 12.1848 113.132 11.8797 112.494 12.0778C112.494 12.0778 113.258 11.4835 114.855 12.0283L115.752 11.5509C115.752 11.5509 114.487 11.2102 113.72 11.2716C113.72 11.2716 114.546 10.8754 116.014 11.4241L116.652 11.1765C116.652 11.1765 115.723 10.9447 115.449 10.9011C115.176 10.8576 115.166 10.7823 115.166 10.7823C115.765 10.7136 116.371 10.8123 116.917 11.0675C116.917 11.0675 118.252 10.6416 118.239 10.5584Z" fill="#6C63FF"/>
<path id="Vector_80" opacity="0.1" d="M183.926 68.8315C183.926 68.8315 176.422 67.9955 177.042 73.3163C177.042 73.3163 176.818 74.2394 177.637 74.703C177.637 74.703 177.67 74.3068 178.429 74.4831C178.697 74.5427 178.971 74.57 179.245 74.5643C179.616 74.5586 179.974 74.4313 180.265 74.2018C180.265 74.2018 182.426 73.4352 183.425 70.02C183.425 70.02 184.071 69.295 184.057 69.1009L182.759 69.5783C182.759 69.5783 183.155 70.5173 182.759 71.2621C182.759 71.2621 182.801 69.6139 182.561 69.6417C182.512 69.6417 181.886 69.925 181.886 69.925C181.886 69.925 182.551 71.5592 181.929 72.6983C181.929 72.6983 182.242 70.7431 181.646 70.0359L180.725 70.5133C180.725 70.5133 181.517 72.207 180.856 73.5223C180.856 73.5223 181.111 71.4661 180.531 70.6302L179.689 71.2244C179.689 71.2244 180.426 72.8904 179.869 73.9799C179.869 73.9799 179.927 71.5751 179.505 71.373C179.505 71.373 178.766 71.9673 178.643 72.2129C178.643 72.2129 179.146 73.4213 178.766 74.0255C178.766 74.0255 178.633 72.415 178.459 72.3991C178.459 72.3991 177.698 73.4233 177.587 74.1463C177.656 73.476 177.899 72.8353 178.292 72.2882C177.881 72.344 177.495 72.5197 177.183 72.7933C177.183 72.7933 177.33 72.0485 178.478 72.0406C178.478 72.0406 179.104 71.266 179.271 71.2264C179.271 71.2264 178.136 71.0719 177.429 71.3433C177.429 71.3433 178.072 70.6678 179.489 71.062L180.321 70.4499C180.321 70.4499 178.831 70.1686 178.183 70.3627C178.183 70.3627 178.948 69.7685 180.545 70.3112L181.442 69.8358C181.442 69.8358 180.176 69.4951 179.409 69.5565C179.409 69.5565 180.236 69.1603 181.703 69.709L182.341 69.4594C182.341 69.4594 181.412 69.2277 181.139 69.1861C180.865 69.1445 180.856 69.0672 180.856 69.0672C181.454 68.9973 182.061 69.0953 182.607 69.3505C182.607 69.3505 183.946 68.9167 183.926 68.8315Z" fill="#6C63FF"/>
<path id="Vector_81" opacity="0.1" d="M195.399 75.84C195.399 75.84 187.895 75.006 188.515 80.3248C188.515 80.3248 188.293 81.248 189.109 81.7115C189.109 81.7115 189.143 81.3153 189.902 81.4936C190.169 81.5518 190.442 81.5784 190.716 81.5728C191.084 81.5653 191.441 81.4388 191.732 81.2123C191.732 81.2123 193.891 80.4457 194.89 77.0286C194.89 77.0286 195.537 76.3055 195.521 76.1094L194.224 76.5868C194.224 76.5868 194.62 77.5258 194.224 78.2706C194.224 78.2706 194.266 76.6245 194.026 76.6502C193.976 76.6502 193.35 76.9335 193.35 76.9335C193.35 76.9335 194.016 78.5678 193.394 79.7068C193.394 79.7068 193.707 77.7516 193.111 77.0464L192.19 77.5218C192.19 77.5218 192.982 79.2155 192.32 80.5309C192.32 80.5309 192.576 78.4747 191.995 77.6407L191.154 78.235C191.154 78.235 191.89 79.9009 191.336 80.9924C191.336 80.9924 191.391 78.5856 190.969 78.3835C190.969 78.3835 190.23 78.9778 190.108 79.2234C190.108 79.2234 190.611 80.4318 190.23 81.036C190.23 81.036 190.098 79.4255 189.923 79.4097C189.923 79.4097 189.163 80.4338 189.054 81.1568C189.122 80.4868 189.365 79.8463 189.757 79.2987C189.346 79.3555 188.96 79.5311 188.648 79.8039C188.648 79.8039 188.796 79.059 189.945 79.0531C189.945 79.0531 190.569 78.2785 190.738 78.2369C190.738 78.2369 189.602 78.0844 188.895 78.3558C188.895 78.3558 189.539 77.6783 190.955 78.0725L191.787 77.4604C191.787 77.4604 190.298 77.1791 189.65 77.3733C189.65 77.3733 190.415 76.779 192.011 77.3237L192.909 76.8463C192.909 76.8463 191.643 76.5056 190.876 76.567C190.876 76.567 191.702 76.1708 193.17 76.7195L193.808 76.4719C193.808 76.4719 192.879 76.2402 192.608 76.1966C192.336 76.153 192.322 76.0777 192.322 76.0777C192.921 76.009 193.527 76.1078 194.073 76.363C194.073 76.363 195.418 75.9252 195.399 75.84Z" fill="#6C63FF"/>
<path id="Vector_82" opacity="0.1" d="M169.929 16.8063C169.929 16.8063 163.884 12.2838 161.722 17.1826C161.722 17.1826 161.063 17.8661 161.536 18.6842C161.536 18.6842 161.762 18.3653 162.329 18.8942C162.529 19.0809 162.751 19.2431 162.99 19.3775C163.314 19.5575 163.687 19.6271 164.054 19.5756C164.054 19.5756 166.304 20.0094 168.897 17.5709C168.897 17.5709 169.821 17.2738 169.908 17.0994L168.547 16.8538C168.547 16.8538 168.404 17.8581 167.701 18.3078C167.701 18.3078 168.571 16.9093 168.345 16.8082C168.299 16.7865 167.62 16.7092 167.62 16.7092C167.62 16.7092 167.364 18.4564 166.255 19.116C166.255 19.116 167.517 17.5887 167.36 16.6775L166.324 16.622C166.324 16.622 166.148 18.4821 164.912 19.2824C164.912 19.2824 166.176 17.6402 166.1 16.626L165.074 16.7092C165.074 16.7092 164.876 18.5178 163.834 19.1755C163.834 19.1755 165.102 17.1311 164.84 16.7429C164.84 16.7429 163.903 16.8756 163.672 17.0301C163.672 17.0301 163.493 18.3256 162.86 18.6545C162.86 18.6545 163.561 17.1985 163.418 17.0975C163.418 17.0975 162.243 17.5947 161.782 18.1612C162.181 17.6188 162.715 17.19 163.331 16.9172C162.948 16.7579 162.527 16.7139 162.119 16.7904C162.119 16.7904 162.624 16.2239 163.618 16.8003C163.618 16.8003 164.547 16.4497 164.706 16.4933C164.706 16.4933 163.804 15.7861 163.058 15.6633C163.058 15.6633 163.957 15.4057 164.977 16.4556L166.005 16.3507C166.005 16.3507 164.864 15.3602 164.207 15.1938C164.207 15.1938 165.163 15.0729 166.267 16.3447L167.283 16.3903C167.283 16.3903 166.364 15.4553 165.672 15.1185C165.672 15.1185 166.584 15.1977 167.572 16.4121L168.248 16.521C168.248 16.521 167.564 15.8515 167.35 15.6771C167.136 15.5028 167.168 15.4454 167.168 15.4454C167.718 15.6898 168.19 16.082 168.531 16.5785C168.531 16.5785 169.904 16.8875 169.929 16.8063Z" fill="#6C63FF"/>
<path id="Vector_83" opacity="0.1" d="M174.6 49.4559C174.6 49.4559 172.516 42.1998 167.829 44.8047C167.829 44.8047 166.89 44.9493 166.773 45.8883C166.773 45.8883 167.146 45.7714 167.275 46.5301C167.322 46.8027 167.402 47.0686 167.512 47.3225C167.659 47.6638 167.914 47.9477 168.237 48.1307C168.237 48.1307 169.771 49.8343 173.309 49.454C173.309 49.454 174.224 49.7749 174.398 49.6877L173.461 48.6695C173.461 48.6695 172.742 49.3866 171.91 49.3193C171.91 49.3193 173.447 48.725 173.328 48.513C173.305 48.4694 172.809 47.996 172.809 47.996C172.809 47.996 171.553 49.2361 170.27 49.0914C170.27 49.0914 172.197 48.6358 172.621 47.8157L171.829 47.1462C171.829 47.1462 170.565 48.5209 169.097 48.414C169.097 48.414 171.094 47.8653 171.645 47.0115L170.777 46.4588C170.777 46.4588 169.519 47.7761 168.299 47.6771C168.299 47.6771 170.543 46.8114 170.571 46.3459C170.571 46.3459 169.743 45.8863 169.464 45.8704C169.464 45.8704 168.538 46.7936 167.835 46.6747C167.835 46.6747 169.273 45.9358 169.222 45.7694C169.222 45.7694 167.986 45.4584 167.275 45.6308C167.919 45.4398 168.601 45.42 169.256 45.5733C169.046 45.2149 168.736 44.9256 168.364 44.7413C168.364 44.7413 169.109 44.5927 169.553 45.6525C169.553 45.6525 170.506 45.9338 170.605 46.0646C170.605 46.0646 170.313 44.9572 169.792 44.4085C169.792 44.4085 170.664 44.7453 170.84 46.2032L171.724 46.7401C171.724 46.7401 171.415 45.2544 170.987 44.7314C170.987 44.7314 171.823 45.2128 171.936 46.8926L172.728 47.5404C172.728 47.5404 172.56 46.2409 172.211 45.5594C172.211 45.5594 172.891 46.1735 172.946 47.7385L173.417 48.2337C173.417 48.2337 173.279 47.2868 173.219 47.0174C173.16 46.748 173.219 46.7104 173.219 46.7104C173.513 47.2373 173.653 47.8354 173.625 48.4377C173.625 48.4377 174.529 49.5035 174.6 49.4559Z" fill="#6C63FF"/>
<path id="Vector_84" opacity="0.1" d="M128.165 65.8066C128.165 65.8066 124.118 59.4319 120.36 63.2472C120.36 63.2472 119.5 63.6434 119.651 64.5843C119.651 64.5843 119.977 64.3664 120.314 65.0598C120.435 65.3055 120.585 65.5356 120.762 65.7452C120.998 66.0312 121.322 66.2316 121.683 66.3157C121.683 66.3157 123.634 67.5201 126.923 66.1572C126.923 66.1572 127.891 66.2087 128.034 66.076L126.845 65.3629C126.845 65.3629 126.356 66.2543 125.538 66.4227C125.538 66.4227 126.849 65.4322 126.673 65.2499C126.639 65.2143 126.029 64.9013 126.029 64.9013C126.029 64.9013 125.171 66.4425 123.9 66.6663C123.9 66.6663 125.621 65.6858 125.799 64.7785L124.85 64.3605C124.85 64.3605 124.024 66.0344 122.586 66.3414C122.586 66.3414 124.349 65.2539 124.637 64.2793L123.646 63.994C123.646 63.994 122.81 65.6125 121.612 65.8601C121.612 65.8601 123.521 64.3981 123.416 63.9425C123.416 63.9425 122.493 63.7345 122.228 63.7979C122.228 63.7979 121.6 64.9449 120.891 65.0281C120.891 65.0281 122.063 63.9148 121.966 63.7682C121.966 63.7682 120.692 63.8177 120.059 64.1842C120.624 63.8179 121.276 63.6061 121.948 63.5701C121.647 63.285 121.269 63.0943 120.861 63.0214C120.861 63.0214 121.532 62.6708 122.248 63.5622C122.248 63.5622 123.238 63.5622 123.375 63.6612C123.375 63.6612 122.78 62.6708 122.129 62.3003C122.129 62.3003 123.06 62.3796 123.638 63.7286L124.638 63.994C124.638 63.994 123.923 62.6569 123.367 62.2746C123.367 62.2746 124.304 62.5004 124.884 64.0832L125.819 64.4794C125.819 64.4794 125.292 63.2809 124.763 62.7203C124.763 62.7203 125.587 63.1165 126.081 64.6042L126.675 64.9469C126.675 64.9469 126.279 64.0772 126.138 63.8375C125.997 63.5978 126.053 63.5424 126.053 63.5424C126.482 63.9658 126.784 64.5001 126.926 65.0855C126.926 65.0855 128.111 65.8739 128.165 65.8066Z" fill="#6C63FF"/>
<path id="Vector_85" d="M154.762 33.2364C154.762 33.2364 150.913 26.7409 147.036 30.4373C147.036 30.4373 146.164 30.8137 146.287 31.7527C146.287 31.7527 146.618 31.5427 146.935 32.2459C147.048 32.4959 147.191 32.7313 147.361 32.9472C147.588 33.2393 147.906 33.4482 148.264 33.5414C148.264 33.5414 150.176 34.8053 153.506 33.5414C153.506 33.5414 154.472 33.6227 154.619 33.4939L153.456 32.7451C153.456 32.7451 152.941 33.6187 152.117 33.7633C152.117 33.7633 153.458 32.8065 153.29 32.6262C153.254 32.5886 152.656 32.2558 152.656 32.2558C152.656 32.2558 151.751 33.7712 150.477 33.9555C150.477 33.9555 152.228 33.0284 152.432 32.129L151.497 31.6893C151.497 31.6893 150.62 33.3394 149.171 33.6028C149.171 33.6028 150.968 32.5708 151.285 31.6061L150.307 31.2891C150.307 31.2891 149.419 32.8739 148.215 33.0918C148.215 33.0918 150.168 31.6893 150.077 31.2317C150.077 31.2317 149.162 30.994 148.888 31.0494C148.888 31.0494 148.225 32.1766 147.513 32.238C147.513 32.238 148.72 31.1643 148.629 31.0138C148.629 31.0138 147.353 31.0237 146.709 31.3703C147.286 31.0225 147.943 30.8313 148.617 30.8157C148.324 30.5212 147.952 30.3188 147.545 30.2333C147.545 30.2333 148.229 29.9025 148.932 30.8157C148.932 30.8157 149.922 30.8493 150.055 30.9504C150.055 30.9504 149.494 29.9599 148.853 29.5518C148.853 29.5518 149.78 29.6588 150.316 31.0256L151.307 31.3228C151.307 31.3228 150.635 29.9639 150.089 29.5637C150.089 29.5637 151.02 29.8193 151.551 31.4179L152.472 31.8477C152.472 31.8477 151.982 30.6334 151.481 30.0649C151.481 30.0649 152.291 30.4868 152.741 31.9884L153.322 32.3489C153.322 32.3489 152.949 31.4674 152.818 31.2237C152.688 30.9801 152.743 30.9266 152.743 30.9266C153.158 31.363 153.444 31.9062 153.569 32.4955C153.569 32.4955 154.704 33.3017 154.762 33.2364Z" fill="#FFC700"/>
<path id="Vector_86" d="M130.41 46.8944C130.41 46.8944 130.608 39.3471 125.364 40.4108C125.364 40.4108 124.425 40.2662 124.029 41.126C124.029 41.126 124.425 41.126 124.315 41.8886C124.278 42.1606 124.274 42.4359 124.303 42.7087C124.338 43.0789 124.495 43.4269 124.748 43.6992C124.748 43.6992 125.693 45.7871 129.182 46.4963C129.182 46.4963 129.956 47.0807 130.15 47.049L129.556 45.797C129.556 45.797 128.655 46.2605 127.88 45.9456C127.88 45.9456 129.524 45.8485 129.479 45.6068C129.479 45.5573 129.138 44.9551 129.138 44.9551C129.138 44.9551 127.565 45.7574 126.387 45.2305C126.387 45.2305 128.368 45.379 129.015 44.7273L128.463 43.8498C128.463 43.8498 126.842 44.7768 125.475 44.2301C125.475 44.2301 127.545 44.3133 128.33 43.6655L127.67 42.8731C127.67 42.8731 126.072 43.7487 124.939 43.2852C124.939 43.2852 127.339 43.1406 127.514 42.7028C127.514 42.7028 126.864 42.0154 126.603 41.9104C126.603 41.9104 125.442 42.5047 124.808 42.1838C124.808 42.1838 126.393 41.9183 126.402 41.742C126.402 41.742 125.319 41.0705 124.588 41.021C125.262 41.033 125.921 41.2215 126.5 41.5677C126.409 41.1628 126.203 40.7931 125.905 40.504C125.905 40.504 126.66 40.5891 126.763 41.7321C126.763 41.7321 127.589 42.2908 127.643 42.4453C127.643 42.4453 127.7 41.3023 127.369 40.6208C127.369 40.6208 128.098 41.2052 127.825 42.6473L128.504 43.4278C128.504 43.4278 128.659 41.9183 128.411 41.2904C128.411 41.2904 129.061 42.0015 128.661 43.6378L129.209 44.4916C129.209 44.4916 129.443 43.202 129.318 42.4433C129.318 42.4433 129.778 43.2357 129.358 44.7432L129.659 45.3572C129.659 45.3572 129.812 44.4123 129.831 44.137C129.851 43.8616 129.927 43.8438 129.927 43.8438C130.046 44.4347 129.998 45.0472 129.79 45.6128C129.79 45.6128 130.323 46.9202 130.41 46.8944Z" fill="#FFC700"/>
<path id="Vector_87" opacity="0.1" d="M139.079 142.796C142.025 142.796 144.413 142.392 144.413 141.894C144.413 141.397 142.025 140.993 139.079 140.993C136.133 140.993 133.744 141.397 133.744 141.894C133.744 142.392 136.133 142.796 139.079 142.796Z" fill="#6C63FF"/>
<path id="Vector_88" opacity="0.1" d="M119.632 156.48C122.578 156.48 124.966 156.076 124.966 155.579C124.966 155.081 122.578 154.677 119.632 154.677C116.685 154.677 114.297 155.081 114.297 155.579C114.297 156.076 116.685 156.48 119.632 156.48Z" fill="#6C63FF"/>
<path id="Vector_89" opacity="0.1" d="M19.0671 149.47C22.0133 149.47 24.4017 149.066 24.4017 148.568C24.4017 148.071 22.0133 147.667 19.0671 147.667C16.1208 147.667 13.7324 148.071 13.7324 148.568C13.7324 149.066 16.1208 149.47 19.0671 149.47Z" fill="#6C63FF"/>
<path id="Vector_90" opacity="0.1" d="M160.094 155.579C163.041 155.579 165.429 155.175 165.429 154.677C165.429 154.179 163.041 153.776 160.094 153.776C157.148 153.776 154.76 154.179 154.76 154.677C154.76 155.175 157.148 155.579 160.094 155.579Z" fill="#6C63FF"/>
<path id="Vector_91" d="M165.649 144.589C170.048 144.589 173.614 143.986 173.614 143.242C173.614 142.498 170.048 141.895 165.649 141.895C161.25 141.895 157.684 142.498 157.684 143.242C157.684 143.986 161.25 144.589 165.649 144.589Z" fill="#FFC700"/>
<path id="Vector_92" d="M168.95 141.037C169.314 140.741 169.578 140.342 169.709 139.892C169.808 139.436 169.614 138.892 169.18 138.725C168.693 138.539 168.172 138.876 167.775 139.216C167.379 139.557 166.93 139.947 166.413 139.876C166.678 139.635 166.877 139.329 166.989 138.989C167.101 138.648 167.124 138.285 167.054 137.933C167.032 137.787 166.97 137.65 166.876 137.537C166.605 137.247 166.115 137.372 165.791 137.6C164.76 138.325 164.473 139.724 164.467 140.983C164.364 140.53 164.451 140.056 164.449 139.597C164.447 139.137 164.319 138.606 163.925 138.365C163.683 138.23 163.409 138.161 163.132 138.166C162.669 138.151 162.152 138.196 161.837 138.535C161.44 138.955 161.545 139.662 161.886 140.12C162.227 140.577 162.748 140.872 163.227 141.193C163.611 141.422 163.938 141.735 164.186 142.107C164.214 142.158 164.237 142.213 164.255 142.269H167.159C167.81 141.942 168.412 141.527 168.95 141.037Z" fill="#FFC700"/>
<path id="Vector_93" d="M15.4863 144.378C15.4863 144.378 18.5271 144.285 19.4482 143.631C20.3693 142.978 24.1292 142.199 24.357 143.247C24.5848 144.295 28.929 148.455 25.494 148.483C22.0591 148.511 17.5128 147.948 16.5976 147.389C15.6824 146.831 15.4863 144.378 15.4863 144.378Z" fill="#A8A8A8"/>
<path id="Vector_94" opacity="0.2" d="M25.5515 148.118C22.1165 148.146 17.5703 147.584 16.6551 147.025C15.9578 146.601 15.6805 145.078 15.5874 144.375H15.4863C15.4863 144.375 15.6844 146.829 16.5937 147.386C17.5029 147.942 22.0551 148.507 25.4901 148.479C26.4805 148.479 26.8232 148.118 26.8054 147.596C26.6667 147.914 26.2884 148.113 25.5515 148.118Z" fill="black"/>
</g>
<defs>
<linearGradient id="paint0_linear_323_1478" x1="44.7895" y1="85.8576" x2="106.62" y2="85.8576" gradientUnits="userSpaceOnUse">
<stop stop-color="#808080" stop-opacity="0.25"/>
<stop offset="0.54" stop-color="#808080" stop-opacity="0.12"/>
<stop offset="1" stop-color="#808080" stop-opacity="0.1"/>
</linearGradient>
<clipPath id="clip0_323_1478">
<rect width="199.983" height="156.48" fill="white" transform="translate(0.617188)"/>
</clipPath>
</defs>
</svg>
