<svg width="24" height="23" viewBox="0 0 24 23" fill="none" xmlns="http://www.w3.org/2000/svg">
<path d="M10.547 0.903189C11.1414 -0.301057 12.8586 -0.301069 13.4529 0.903189L16.283 6.63736L22.611 7.55687C23.9399 7.74999 24.4706 9.38319 23.509 10.3205L18.9299 14.7839L20.0109 21.0865C20.2378 22.4101 18.8486 23.4194 17.66 22.7945L12 19.8188L6.34003 22.7945C5.15137 23.4194 3.7621 22.4101 3.98912 21.0865L5.07008 14.7839L0.49107 10.3205C-0.470582 9.38319 0.0600701 7.74999 1.38904 7.55687L7.71708 6.63736L10.547 0.903189ZM12 2.02704L9.28957 7.51897C9.05356 7.99719 8.59734 8.32863 8.06961 8.40532L2.0089 9.28598L6.39447 13.5609C6.77634 13.9331 6.9506 14.4694 6.86045 14.995L5.82516 21.0313L11.246 18.1813C11.7181 17.9331 12.2819 17.9331 12.7539 18.1813L18.1748 21.0313L17.1396 14.995C17.0494 14.4694 17.2237 13.9331 17.6055 13.5609L21.9911 9.28598L15.9304 8.40532C15.4026 8.32863 14.9464 7.99719 14.7105 7.51897L12 2.02704Z" fill="#FFC700"/>
</svg>
